<?xml version="1.0" encoding="utf-8"?>
<!-- Generator: Adobe Illustrator 25.3.0, SVG Export Plug-In . SVG Version: 6.00 Build 0)  -->
<svg version="1.1"
	 id="svg4155" inkscape:version="0.91 r13725" sodipodi:docname="Logo_Blender.svg" xmlns:cc="http://creativecommons.org/ns#" xmlns:dc="http://purl.org/dc/elements/1.1/" xmlns:inkscape="http://www.inkscape.org/namespaces/inkscape" xmlns:rdf="http://www.w3.org/1999/02/22-rdf-syntax-ns#" xmlns:sodipodi="http://sodipodi.sourceforge.net/DTD/sodipodi-0.dtd" xmlns:svg="http://www.w3.org/2000/svg"
	 xmlns="http://www.w3.org/2000/svg" xmlns:xlink="http://www.w3.org/1999/xlink" x="0px" y="0px" viewBox="0 0 180.9 147.7"
	 style="enable-background:new 0 0 180.9 147.7;" xml:space="preserve">
<style type="text/css">
	.st0{fill:#005385;}
	.st1{fill:#FF7021;}
</style>
<sodipodi:namedview  bordercolor="#666666" borderopacity="1" fit-margin-bottom="2" fit-margin-left="2" fit-margin-right="2" fit-margin-top="2" gridtolerance="10" guidetolerance="10" id="namedview4197" inkscape:current-layer="svg4155" inkscape:cx="242.41298" inkscape:cy="67.053133" inkscape:pageopacity="0" inkscape:pageshadow="2" inkscape:window-height="2130" inkscape:window-maximized="1" inkscape:window-width="3840" inkscape:window-x="0" inkscape:window-y="30" inkscape:zoom="2.8641304" objecttolerance="10" pagecolor="#ffffff" showgrid="false">
	</sodipodi:namedview>
<g id="g4161" transform="translate(-0.63683287,1.5502632)">
	<path id="path4163" inkscape:connector-curvature="0" class="st0" d="M94.9,81.3c0.3-5.9,3.2-11.1,7.6-14.8l0,0
		c4.3-3.6,10-5.8,16.3-5.8l0,0c6.3,0,12,2.2,16.3,5.8l0,0c4.4,3.7,7.2,8.9,7.6,14.8c0.3,6.1-2.1,11.7-6.4,15.9l0,0
		c-4.4,4.2-10.6,6.9-17.5,6.9l0,0c-6.9,0-13.2-2.7-17.5-6.9l0,0C97,93,94.5,87.3,94.9,81.3z"/>
</g>
<g id="g4165" transform="translate(-0.63683287,1.5502632)">
	<path id="path4167" inkscape:connector-curvature="0" class="st1" d="M56.8,93.2c0,2.3,0.8,6.8,1.9,10.3l0,0
		c2.3,7.4,6.3,14.3,11.7,20.3l0,0C76.1,130,83,135,91,138.6l0,0c8.4,3.7,17.5,5.6,27,5.6l0,0c9.5,0,18.6-1.9,27-5.7l0,0
		c8-3.6,14.9-8.6,20.5-14.8l0,0c5.5-6.1,9.4-12.9,11.7-20.4l0,0c1.2-3.8,1.9-7.6,2.2-11.4l0,0c0.3-3.8,0.2-7.5-0.4-11.3l0,0
		c-1-7.3-3.6-14.2-7.5-20.5c-3.6-5.8-8.2-10.8-13.7-15.1l0,0l0,0l0,0L102.6,2.6l0,0c0,0-0.1-0.1-0.1-0.1l0,0
		c-3.6-2.8-9.7-2.8-13.7,0l0,0c-4,2.8-4.5,7.5-0.9,10.4l0,0l0,0l0,0l23.1,18.8l-70.3,0.1l0,0c0,0-0.1,0-0.1,0l0,0
		c-5.8,0-11.4,3.8-12.5,8.6l0,0c-1.1,4.9,2.8,9,8.9,9l0,0l0,0l0,0l35.6-0.1L9,98.2l0,0c-0.1,0.1-0.2,0.1-0.2,0.2l0,0
		c-6,4.6-7.9,12.2-4.2,17.1l0,0c3.8,4.9,12,4.9,18,0l0,0l34.7-28.4C57.3,87.1,56.8,90.9,56.8,93.2L56.8,93.2z M145.9,106
		c-7.1,7.3-17.1,11.4-28,11.4l0,0c-10.8,0-20.8-4.1-28-11.3l0,0c-3.5-3.5-6.1-7.6-7.6-12l0,0c-1.5-4.3-2.2-8.8-1.8-13.4l0,0
		c0.4-4.5,1.7-8.7,3.8-12.6l0,0c2.1-3.8,5-7.2,8.5-10.1l0,0c6.9-5.7,15.8-8.7,25-8.7l0,0c9.3,0,18.1,3,25,8.7l0,0
		c3.5,2.9,6.4,6.3,8.5,10.1l0,0c2.1,3.9,3.4,8.1,3.8,12.6l0,0c0.4,4.6-0.2,9.1-1.8,13.4l0,0C152,98.4,149.4,102.5,145.9,106
		L145.9,106z"/>
</g>
</svg>
