<?xml version="1.0" encoding="utf-8"?>
<!-- Generator: Adobe Illustrator 25.3.0, SVG Export Plug-In . SVG Version: 6.00 Build 0)  -->
<svg version="1.1" id="Capa_1" xmlns="http://www.w3.org/2000/svg" xmlns:xlink="http://www.w3.org/1999/xlink" x="0px" y="0px"
	 viewBox="0 0 500 500" style="enable-background:new 0 0 500 500;" xml:space="preserve">
<style type="text/css">
	.st0{fill:#FFFFFF;stroke:#FFFFFF;stroke-miterlimit:10;}
	.st1{fill:#A2BE3E;}
</style>
<path class="st0" d="M337.3,116.2c-2.1-6.2-4.9-16.5-18.6-12l-48.9,16.1L269.6,67c-0.1-14.3-10.9-11.1-17.6-11.1
	s-18.3-3.1-18.2,11.2l0.2,53.3L184,106c-13.8-4.4-16.1,6.1-18.2,12.3c-2.1,6.4-6.6,17,7.3,21.4l50,14.4L192,196
	c-8.4,11.6,1,17.9,6.4,21.6c5.5,3.9,14.3,10.6,22.7-1l31.3-41.7l31.3,41.1c8.6,11.5,16.9,4.5,22.4,0.6c5.4-3.9,15.2-10,6.6-21.5
	l-31.5-41.3l48.8-16C343.7,133.3,339.4,122.4,337.3,116.2"/>
<path d="M2.3,396.9l-0.1-25.5c-0.1-29.3,9.5-46.3,43.5-46.5l29.8-0.1c34-0.2,43.8,16.7,43.9,46.1l0.1,19c0,3.4-1.9,5.3-5.3,5.3
	l-84.1,0.4v4.2c0.1,14.6,3.9,17.9,16.5,17.9l67.4-0.3c3.4,0,5.3,1.9,5.3,5.3l0.1,15.5c0,3.4-1.9,5.3-5.3,5.3L46,443.8
	C12.3,443.7,2.5,427.1,2.3,396.9z M91.6,373.9v-5.5c-0.1-14.4-3.7-17.7-16.5-17.7l-28.5,0.1c-12.9,0.1-16.4,3.4-16.4,17.8v5.5
	L91.6,373.9z M138.2,437.9l-0.1-15.5c0-3.4,1.9-5.3,5.3-5.3l58.1-0.3c11.6-0.1,16-2.6,16-10s-3.2-9.3-14.4-10.5l-32.6-3.4
	c-26.4-2.8-35.1-12.9-35.2-34.9c-0.1-23,13.4-33.6,42.3-33.7l56.6-0.3c3.4,0,5.3,1.9,5.3,5.3l0.1,15.5c0,3.4-1.9,5.3-5.3,5.3
	l-55.9,0.3c-10.6,0-15.4,2.4-15.4,10.5c0,6.9,3,9.1,12.7,10.1l31.9,3.4c29.6,3.4,37.8,14.2,37.9,35.5c0.1,23.9-13.2,33.1-44.2,33.2
	l-57.9,0.3C140.1,443.2,138.2,441.3,138.2,437.9L138.2,437.9z M263.8,437.4l-0.7-157.3c0-3.4,1.9-5.3,5.3-5.3l17.3-0.1
	c3.4,0,5.3,1.9,5.3,5.3l0.4,91.6v-0.1l44.5-44.7c1.7-2.2,3.8-3.2,6.6-3.2l21.3-0.1c4.4,0,5.7,2.9,3,6.6l-51.4,52.8l51.6,52.8
	c2.7,3.6,1.5,6.6-2.9,6.6l-21.1,0.1c-2.7,0-4.9-1.1-6.6-3.1l-44.9-43.8v0.1l0.2,41.9c0,3.4-1.9,5.3-5.3,5.3l-17.3,0.1
	C265.7,442.6,263.8,440.7,263.8,437.4L263.8,437.4z M375.8,396.2l-0.1-25.5c-0.1-29.3,9.5-46.4,43.5-46.5l35.1-0.2
	c34-0.2,43.8,16.7,43.9,46.1l0.1,25.5c0.1,30.2-9.5,47-43.5,47.1l-35.1,0.2C385.8,443.1,376,426.4,375.8,396.2L375.8,396.2z
	 M454.1,416.7c12.7-0.1,16.4-3.4,16.4-18l-0.1-31.1c-0.1-14.4-3.7-17.7-16.5-17.7l-33.8,0.2c-12.9,0.1-16.4,3.4-16.4,17.8l0.1,31.1
	c0.1,14.6,3.9,17.9,16.5,17.9L454.1,416.7z"/>
<path class="st1" d="M337.3,116.2c-2.1-6.2-4.9-16.5-18.6-12l-48.9,16.1L269.6,67c-0.1-14.3-10.9-11.1-17.6-11.1
	s-18.3-3.1-18.2,11.2l0.2,53.3L184,106c-13.8-4.4-16.1,6.1-18.2,12.3c-2.1,6.4-6.6,17,7.3,21.4l50,14.4L192,196
	c-8.4,11.6,1,17.9,6.4,21.6c5.5,3.9,14.3,10.6,22.7-1l31.3-41.7l31.3,41.1c8.6,11.5,16.9,4.5,22.4,0.6c5.4-3.9,15.2-10,6.6-21.5
	l-31.5-41.3l48.8-16C343.7,133.3,339.4,122.4,337.3,116.2 M358.1,144.2c0.2,58-46.9,105.2-105.6,105.4
	c-58.5,0.2-106.2-46.5-106.6-104.4c-0.2-58,46.9-105,105.5-105.4C310.2,39.5,357.8,86.2,358.1,144.2"/>
</svg>
